<svg version="1.1" xmlns="http://www.w3.org/2000/svg" xmlns:xlink="http://www.w3.org/1999/xlink" width="48" height="48"><defs><linearGradient x1="14.22989" y1="14.22988" x2="51.80133" y2="51.80132" gradientUnits="userSpaceOnUse" id="color-1"><stop offset="0.13" stop-color="#000000" stop-opacity="0.29"></stop><stop offset="1" stop-color="#000000" stop-opacity="0"></stop></linearGradient><filter id="dropshadow-base"><feColorMatrix type="matrix" values="0 0 0 0 0  0 0 0 0 0  0 0 0 0 0  0 0 0 .8 0"></feColorMatrix> <feOffset dx="0" dy="1"></feOffset> <feGaussianBlur stdDeviation="1"></feGaussianBlur> <feComposite in="SourceGraphic"></feComposite></filter><filter id="dropshadow-banner" x="-10%" y="-10%" width="120%" height="130%"><feColorMatrix type="matrix" values="0 0 0 0 0  0 0 0 0 0  0 0 0 0 0  0 0 0 .4 0"></feColorMatrix> <feOffset dx="0" dy="1"></feOffset> <feGaussianBlur stdDeviation="0.5"></feGaussianBlur> <feComposite in="SourceGraphic"></feComposite></filter></defs><g fill="none" fill-rule="nonzero" stroke="none" stroke-width="none" stroke-linecap="butt" stroke-linejoin="miter" stroke-miterlimit="10" stroke-dasharray="" stroke-dashoffset="0" font-family="none" font-weight="none" font-size="none" text-anchor="none" style="mix-blend-mode: normal"><path d="M7,43c-1.10457,0 -2,-0.89543 -2,-2v-34c0,-1.10457 0.89543,-2 2,-2h34c1.10457,0 2,0.89543 2,2v26l-10,10z" id="base 1 5 2" fill="#6c21cc" stroke-width="1"></path><path d="M19.63466,28.36533c-3.33948,-3.33948 -5.40477,-7.95314 -5.40477,-13.04988c0,-0.60249 0.48851,-1.08557 1.08557,-1.08557h3.79949c0.30125,0 0.57264,0.12077 0.76872,0.31685l0,0l4.11634,4.11634v-4.43317h9.77011l9.22989,9.22989v9.54022l-9.36533,9.36533z" fill="url(#color-1)" stroke-width="1"></path><path d="M32.68454,27.79949c-1.35153,0 -2.65964,-0.21711 -3.87548,-0.61877c-0.37452,-0.11941 -0.80332,-0.03257 -1.10185,0.26596l-2.38825,2.39368c-3.07758,-1.56322 -5.58525,-4.07631 -7.15389,-7.14846l2.38825,-2.3991c0.29853,-0.29853 0.38538,-0.72733 0.26596,-1.10185c-0.40166,-1.21584 -0.61877,-2.52394 -0.61877,-3.87548c0,-0.60249 -0.48308,-1.08557 -1.08557,-1.08557h-3.79949c-0.59706,0 -1.08557,0.48308 -1.08557,1.08557c0,10.19348 8.26117,18.45465 18.45465,18.45465c0.60249,0 1.08557,-0.48308 1.08557,-1.08557v-3.79949c0,-0.60249 -0.48308,-1.08557 -1.08557,-1.08557zM24,14.22989v10.85568l3.2567,-3.2567h6.51341v-7.59897z" fill="none" stroke-width="0"></path><path d="M33.77011,28.88505v3.79949c0,0.60249 -0.48308,1.08557 -1.08557,1.08557c-10.19348,0 -18.45465,-8.26117 -18.45465,-18.45465c0,-0.60249 0.48851,-1.08557 1.08557,-1.08557h3.79949c0.60249,0 1.08557,0.48308 1.08557,1.08557c0,1.35153 0.21711,2.65964 0.61877,3.87548c0.11941,0.37452 0.03257,0.80332 -0.26596,1.10185l-2.38825,2.3991c1.56865,3.07216 4.07631,5.58525 7.15389,7.14846l2.38825,-2.39368c0.29853,-0.29853 0.72733,-0.38538 1.10185,-0.26596c1.21584,0.40166 2.52394,0.61877 3.87548,0.61877c0.60249,0 1.08557,0.48308 1.08557,1.08557zM33.77011,14.22989v7.59897h-6.51341l-3.2567,3.2567v-10.85568z" fill="#ffffff" stroke-width="0"></path><path d="M2,24c0,-12.15026 9.84974,-22 22,-22c12.15026,0 22,9.84974 22,22c0,12.15026 -9.84974,22 -22,22c-12.15026,0 -22,-9.84974 -22,-22z" id="base 1 1 1" fill="none" stroke-width="1"></path><g fill="#000000" stroke-width="1" font-family="Roboto, sans-serif" font-weight="normal" font-size="14" text-anchor="start"></g><rect x="2" y="2" width="44" height="22" fill="none" stroke-width="1"></rect><path d="M2,24v-22h44v22z" fill="none" stroke-width="1"></path><path d="M2,24v-22h44v22z" fill="none" stroke-width="1"></path><path d="M2,24v-22h44v22z" fill="none" stroke-width="1"></path><path d="M2,24v-22h44v22z" fill="none" stroke-width="1"></path><path d="M43,33l-10,10v-8c0,-1 1,-2 2,-2z" fill="#8a3fea" stroke-width="1"></path></g></svg>